# xmcd
#
# Track frame offsets: 
#        150
#        17400
#        33485
#        50430
#        60150
#        89635
#        112022
#        126917
#        139892
#        154665
#        172910
#        186885
#
# Disc length: 2734 seconds
#
# Revision: 1
# Processed by: cddbd v1.4PL0 Copyright (c) Steve Scherf et al.
# Submitted via: ExactAudioCopy v0.95a4
#
DISCID=9b0aac0c
DTITLE=James "Son" Thomas - Beefsteak Blues
DYEAR=1998
DGENRE=Blues
TTITLE0=Mama Don't 'Low No Guitar Playin' Round Here
TTITLE1=Big Fat Mama
TTITLE2=Beefsteak Blues
TTITLE3=Rock Me Mama
TTITLE4=Catfish Blues (unexpurgated version)
TTITLE5=Standing at The Crossroads
TTITLE6=Highway 61 Blues
TTITLE7=Good Morning Little Schoolgirl
TTITLE8=Stormy Monday Blues
TTITLE9=Catfish Blues
TTITLE10=Smokey Mountain
TTITLE11=Hoochie Coochie Man/Tune In Next Time
EXTD=YEAR: 1998 ID3G: 0
EXTT0=
EXTT1=
EXTT2=
EXTT3=
EXTT4=
EXTT5=
EXTT6=
EXTT7=
EXTT8=
EXTT9=
EXTT10=
EXTT11=
PLAYORDER=
